<mxfile host="Electron" agent="Mozilla/5.0 (Windows NT 10.0; Win64; x64) AppleWebKit/537.36 (KHTML, like Gecko) draw.io/27.0.9 Chrome/134.0.6998.205 Electron/35.4.0 Safari/537.36" version="27.0.9">
  <diagram name="Page-1" id="ZnFDA8U-q3r4QITrLA2Z">
    <mxGraphModel dx="1895" dy="1138" grid="1" gridSize="10" guides="1" tooltips="1" connect="1" arrows="1" fold="1" page="1" pageScale="1" pageWidth="850" pageHeight="1100" math="0" shadow="0">
      <root>
        <mxCell id="0" />
        <mxCell id="MKHbOC5r8fFgeSn72ZxW-21" value="bg2" parent="0" />
        <mxCell id="MKHbOC5r8fFgeSn72ZxW-22" value="" style="rounded=0;whiteSpace=wrap;html=1;" vertex="1" parent="MKHbOC5r8fFgeSn72ZxW-21">
          <mxGeometry x="100" y="50" width="1330" height="1690" as="geometry" />
        </mxCell>
        <mxCell id="MKHbOC5r8fFgeSn72ZxW-23" value="@Salaar-Saaiem" style="text;html=1;align=center;verticalAlign=middle;whiteSpace=wrap;rounded=0;" vertex="1" parent="MKHbOC5r8fFgeSn72ZxW-21">
          <mxGeometry x="370" y="720" width="610" height="170" as="geometry" />
        </mxCell>
        <mxCell id="MKHbOC5r8fFgeSn72ZxW-24" value="Text" style="text;html=1;align=center;verticalAlign=middle;whiteSpace=wrap;rounded=0;" vertex="1" parent="MKHbOC5r8fFgeSn72ZxW-21">
          <mxGeometry x="970" y="1020" width="60" height="30" as="geometry" />
        </mxCell>
        <object label="FRONT&#xa;" id="1">
          <mxCell parent="0" />
        </object>
        <mxCell id="MKHbOC5r8fFgeSn72ZxW-2" value="" style="shape=image;verticalLabelPosition=bottom;labelBackgroundColor=default;verticalAlign=top;aspect=fixed;imageAspect=0;image=https://raw.githubusercontent.com/Salaar-Saaiem/Garbage-Classification-using-ML/refs/heads/main/Assets/Accuracy%26Loss%20after%20retraining.png;clipPath=inset(0% 0% 0% 51%);" vertex="1" parent="1">
          <mxGeometry x="180" y="920" width="1183" height="780.6190476190476" as="geometry" />
        </mxCell>
        <mxCell id="MKHbOC5r8fFgeSn72ZxW-3" value="" style="shape=image;verticalLabelPosition=bottom;labelBackgroundColor=default;verticalAlign=top;aspect=fixed;imageAspect=0;image=https://raw.githubusercontent.com/Salaar-Saaiem/Garbage-Classification-using-ML/refs/heads/main/Assets/Accuracy%26Loss%20after%20retraining.png;clipPath=inset(0% 49% 0% 0%);" vertex="1" parent="1">
          <mxGeometry x="160" y="110" width="1220" height="773.46" as="geometry" />
        </mxCell>
        <mxCell id="MKHbOC5r8fFgeSn72ZxW-25" value="&lt;font style=&quot;font-size: 30px;&quot;&gt;@Salaar-Saaiem&lt;/font&gt;" style="text;html=1;align=center;verticalAlign=middle;whiteSpace=wrap;rounded=0;fontColor=#EDEDED;" vertex="1" parent="1">
          <mxGeometry x="170" y="790" width="380" height="150" as="geometry" />
        </mxCell>
        <mxCell id="MKHbOC5r8fFgeSn72ZxW-8" value="bg" parent="0" />
        <mxCell id="MKHbOC5r8fFgeSn72ZxW-9" value="" style="verticalLabelPosition=bottom;verticalAlign=top;html=1;shape=mxgraph.basic.frame;dx=30;whiteSpace=wrap;fillColor=#7EA6E0;gradientColor=#3333FF;" vertex="1" parent="MKHbOC5r8fFgeSn72ZxW-8">
          <mxGeometry x="90" y="40" width="1360" height="1720" as="geometry" />
        </mxCell>
      </root>
    </mxGraphModel>
  </diagram>
</mxfile>
